<mxfile host="app.diagrams.net" modified="2023-10-20T16:40:05.012Z" agent="Mozilla/5.0 (Windows NT 10.0; Win64; x64) AppleWebKit/537.36 (KHTML, like Gecko) Chrome/118.0.0.0 Safari/537.36" etag="TL4LEXCvq1PavH8Is7p9" version="22.0.6" type="device">
  <diagram id="R2lEEEUBdFMjLlhIrx00" name="Page-1">
    <mxGraphModel dx="2524" dy="790" grid="1" gridSize="10" guides="1" tooltips="1" connect="1" arrows="1" fold="1" page="1" pageScale="1" pageWidth="850" pageHeight="1100" math="0" shadow="0" extFonts="Permanent Marker^https://fonts.googleapis.com/css?family=Permanent+Marker">
      <root>
        <mxCell id="0" />
        <mxCell id="1" parent="0" />
        <mxCell id="kOXnDV7c6oMq51r_EFAc-1" value="" style="triangle;whiteSpace=wrap;html=1;rotation=90;" parent="1" vertex="1">
          <mxGeometry x="380" y="490" width="60" height="80" as="geometry" />
        </mxCell>
        <mxCell id="kOXnDV7c6oMq51r_EFAc-2" value="" style="endArrow=none;html=1;rounded=0;" parent="1" target="kOXnDV7c6oMq51r_EFAc-3" edge="1">
          <mxGeometry width="50" height="50" relative="1" as="geometry">
            <mxPoint x="410" y="500" as="sourcePoint" />
            <mxPoint x="410" y="440" as="targetPoint" />
          </mxGeometry>
        </mxCell>
        <mxCell id="kOXnDV7c6oMq51r_EFAc-3" value="&lt;font style=&quot;font-size: 18px;&quot;&gt;Productos&lt;/font&gt;" style="rounded=0;whiteSpace=wrap;html=1;" parent="1" vertex="1">
          <mxGeometry x="350" y="410" width="120" height="60" as="geometry" />
        </mxCell>
        <mxCell id="kOXnDV7c6oMq51r_EFAc-4" value="&lt;font style=&quot;font-size: 18px;&quot;&gt;Películas&lt;/font&gt;" style="rounded=0;whiteSpace=wrap;html=1;" parent="1" vertex="1">
          <mxGeometry x="510" y="635" width="120" height="60" as="geometry" />
        </mxCell>
        <mxCell id="kOXnDV7c6oMq51r_EFAc-5" value="&lt;font style=&quot;font-size: 18px;&quot;&gt;Revistas&lt;/font&gt;" style="rounded=0;whiteSpace=wrap;html=1;" parent="1" vertex="1">
          <mxGeometry x="350" y="635" width="120" height="60" as="geometry" />
        </mxCell>
        <mxCell id="kOXnDV7c6oMq51r_EFAc-6" value="&lt;font style=&quot;font-size: 18px;&quot;&gt;Libros&lt;/font&gt;" style="rounded=0;whiteSpace=wrap;html=1;" parent="1" vertex="1">
          <mxGeometry x="200" y="635" width="120" height="60" as="geometry" />
        </mxCell>
        <mxCell id="kOXnDV7c6oMq51r_EFAc-8" value="&lt;font style=&quot;font-size: 18px;&quot;&gt;Temática&lt;/font&gt;" style="rounded=0;whiteSpace=wrap;html=1;" parent="1" vertex="1">
          <mxGeometry x="10" y="600" width="120" height="60" as="geometry" />
        </mxCell>
        <mxCell id="kOXnDV7c6oMq51r_EFAc-9" value="&lt;font style=&quot;font-size: 18px;&quot;&gt;Socios&lt;/font&gt;" style="rounded=0;whiteSpace=wrap;html=1;" parent="1" vertex="1">
          <mxGeometry x="105" y="160" width="120" height="60" as="geometry" />
        </mxCell>
        <mxCell id="kOXnDV7c6oMq51r_EFAc-10" value="&lt;font style=&quot;font-size: 18px;&quot;&gt;Autores&lt;/font&gt;" style="rounded=0;whiteSpace=wrap;html=1;" parent="1" vertex="1">
          <mxGeometry x="10" y="410" width="120" height="60" as="geometry" />
        </mxCell>
        <mxCell id="kOXnDV7c6oMq51r_EFAc-11" value="&lt;font style=&quot;font-size: 14px;&quot;&gt;Creado&lt;/font&gt;" style="rhombus;whiteSpace=wrap;html=1;" parent="1" vertex="1">
          <mxGeometry x="200" y="400" width="80" height="80" as="geometry" />
        </mxCell>
        <mxCell id="kOXnDV7c6oMq51r_EFAc-12" value="&lt;font style=&quot;font-size: 14px;&quot;&gt;Publicado&lt;/font&gt;" style="rhombus;whiteSpace=wrap;html=1;" parent="1" vertex="1">
          <mxGeometry x="550" y="400" width="90" height="80" as="geometry" />
        </mxCell>
        <mxCell id="kOXnDV7c6oMq51r_EFAc-13" value="&lt;font style=&quot;font-size: 14px;&quot;&gt;Se Prestan&lt;/font&gt;" style="rhombus;whiteSpace=wrap;html=1;" parent="1" vertex="1">
          <mxGeometry x="260" y="150" width="80" height="80" as="geometry" />
        </mxCell>
        <mxCell id="kOXnDV7c6oMq51r_EFAc-14" value="&lt;font style=&quot;font-size: 14px;&quot;&gt;Indican&lt;/font&gt;" style="rhombus;whiteSpace=wrap;html=1;" parent="1" vertex="1">
          <mxGeometry x="30" y="260" width="80" height="80" as="geometry" />
        </mxCell>
        <mxCell id="kOXnDV7c6oMq51r_EFAc-15" value="&lt;font style=&quot;font-size: 18px;&quot;&gt;Distribuidora&lt;/font&gt;" style="rounded=0;whiteSpace=wrap;html=1;" parent="1" vertex="1">
          <mxGeometry x="720" y="410" width="120" height="60" as="geometry" />
        </mxCell>
        <mxCell id="kOXnDV7c6oMq51r_EFAc-16" value="&lt;font style=&quot;font-size: 14px;&quot;&gt;Asignados&lt;/font&gt;" style="rhombus;whiteSpace=wrap;html=1;" parent="1" vertex="1">
          <mxGeometry x="740" y="270" width="80" height="80" as="geometry" />
        </mxCell>
        <mxCell id="kOXnDV7c6oMq51r_EFAc-17" value="&lt;font style=&quot;font-size: 18px;&quot;&gt;Empleados&lt;/font&gt;" style="rounded=0;whiteSpace=wrap;html=1;" parent="1" vertex="1">
          <mxGeometry x="720" y="150" width="120" height="60" as="geometry" />
        </mxCell>
        <mxCell id="kOXnDV7c6oMq51r_EFAc-18" value="&lt;font style=&quot;font-size: 14px;&quot;&gt;Corresponde&lt;/font&gt;" style="rhombus;whiteSpace=wrap;html=1;" parent="1" vertex="1">
          <mxGeometry x="160" y="500" width="90" height="80" as="geometry" />
        </mxCell>
        <mxCell id="kOXnDV7c6oMq51r_EFAc-19" value="" style="endArrow=halfCircle;html=1;rounded=0;entryX=1;entryY=0.5;entryDx=0;entryDy=0;endFill=0;exitX=0.5;exitY=0;exitDx=0;exitDy=0;" parent="1" source="kOXnDV7c6oMq51r_EFAc-5" target="kOXnDV7c6oMq51r_EFAc-1" edge="1">
          <mxGeometry width="50" height="50" relative="1" as="geometry">
            <mxPoint x="410" y="610" as="sourcePoint" />
            <mxPoint x="460" y="560" as="targetPoint" />
          </mxGeometry>
        </mxCell>
        <mxCell id="kOXnDV7c6oMq51r_EFAc-20" value="" style="endArrow=halfCircle;html=1;rounded=0;entryX=1;entryY=0.5;entryDx=0;entryDy=0;endFill=0;exitX=0.433;exitY=0.05;exitDx=0;exitDy=0;exitPerimeter=0;" parent="1" source="kOXnDV7c6oMq51r_EFAc-4" target="kOXnDV7c6oMq51r_EFAc-1" edge="1">
          <mxGeometry width="50" height="50" relative="1" as="geometry">
            <mxPoint x="550" y="610" as="sourcePoint" />
            <mxPoint x="600" y="560" as="targetPoint" />
            <Array as="points">
              <mxPoint x="530" y="560" />
            </Array>
          </mxGeometry>
        </mxCell>
        <mxCell id="kOXnDV7c6oMq51r_EFAc-21" value="" style="endArrow=halfCircle;html=1;rounded=0;entryX=1;entryY=0.5;entryDx=0;entryDy=0;endFill=0;exitX=0.5;exitY=0;exitDx=0;exitDy=0;" parent="1" source="kOXnDV7c6oMq51r_EFAc-6" target="kOXnDV7c6oMq51r_EFAc-1" edge="1">
          <mxGeometry width="50" height="50" relative="1" as="geometry">
            <mxPoint x="260" y="610" as="sourcePoint" />
            <mxPoint x="310" y="560" as="targetPoint" />
            <Array as="points">
              <mxPoint x="280" y="560" />
            </Array>
          </mxGeometry>
        </mxCell>
        <mxCell id="kOXnDV7c6oMq51r_EFAc-22" value="" style="endArrow=none;html=1;rounded=0;entryX=1;entryY=0.5;entryDx=0;entryDy=0;exitX=0;exitY=0.5;exitDx=0;exitDy=0;" parent="1" source="kOXnDV7c6oMq51r_EFAc-38" target="kOXnDV7c6oMq51r_EFAc-13" edge="1">
          <mxGeometry width="50" height="50" relative="1" as="geometry">
            <mxPoint x="370" y="410" as="sourcePoint" />
            <mxPoint x="420" y="360" as="targetPoint" />
          </mxGeometry>
        </mxCell>
        <mxCell id="kOXnDV7c6oMq51r_EFAc-23" value="" style="endArrow=none;html=1;rounded=0;exitX=1;exitY=0.5;exitDx=0;exitDy=0;entryX=0;entryY=0.5;entryDx=0;entryDy=0;" parent="1" source="kOXnDV7c6oMq51r_EFAc-11" target="kOXnDV7c6oMq51r_EFAc-3" edge="1">
          <mxGeometry width="50" height="50" relative="1" as="geometry">
            <mxPoint x="290" y="470" as="sourcePoint" />
            <mxPoint x="340" y="420" as="targetPoint" />
          </mxGeometry>
        </mxCell>
        <mxCell id="kOXnDV7c6oMq51r_EFAc-24" value="" style="endArrow=none;html=1;rounded=0;entryX=0;entryY=1;entryDx=0;entryDy=0;exitX=0.913;exitY=0.375;exitDx=0;exitDy=0;exitPerimeter=0;" parent="1" source="kOXnDV7c6oMq51r_EFAc-18" target="kOXnDV7c6oMq51r_EFAc-3" edge="1">
          <mxGeometry width="50" height="50" relative="1" as="geometry">
            <mxPoint x="260" y="520" as="sourcePoint" />
            <mxPoint x="290" y="480" as="targetPoint" />
          </mxGeometry>
        </mxCell>
        <mxCell id="kOXnDV7c6oMq51r_EFAc-25" value="" style="endArrow=none;html=1;rounded=0;entryX=0;entryY=1;entryDx=0;entryDy=0;exitX=1;exitY=0;exitDx=0;exitDy=0;" parent="1" source="kOXnDV7c6oMq51r_EFAc-8" target="kOXnDV7c6oMq51r_EFAc-18" edge="1">
          <mxGeometry width="50" height="50" relative="1" as="geometry">
            <mxPoint x="160" y="590" as="sourcePoint" />
            <mxPoint x="190" y="540" as="targetPoint" />
          </mxGeometry>
        </mxCell>
        <mxCell id="kOXnDV7c6oMq51r_EFAc-26" value="" style="endArrow=none;html=1;rounded=0;entryX=0;entryY=0.5;entryDx=0;entryDy=0;exitX=1;exitY=0.5;exitDx=0;exitDy=0;" parent="1" source="kOXnDV7c6oMq51r_EFAc-10" target="kOXnDV7c6oMq51r_EFAc-11" edge="1">
          <mxGeometry width="50" height="50" relative="1" as="geometry">
            <mxPoint x="140" y="440" as="sourcePoint" />
            <mxPoint x="200" y="439.5" as="targetPoint" />
          </mxGeometry>
        </mxCell>
        <mxCell id="kOXnDV7c6oMq51r_EFAc-27" value="" style="endArrow=none;html=1;rounded=0;exitX=1;exitY=0.5;exitDx=0;exitDy=0;entryX=0;entryY=0.5;entryDx=0;entryDy=0;" parent="1" source="kOXnDV7c6oMq51r_EFAc-12" target="kOXnDV7c6oMq51r_EFAc-15" edge="1">
          <mxGeometry width="50" height="50" relative="1" as="geometry">
            <mxPoint x="630" y="439.5" as="sourcePoint" />
            <mxPoint x="700" y="439.5" as="targetPoint" />
          </mxGeometry>
        </mxCell>
        <mxCell id="kOXnDV7c6oMq51r_EFAc-28" value="" style="endArrow=none;html=1;rounded=0;entryX=0;entryY=0.5;entryDx=0;entryDy=0;exitX=1;exitY=0.5;exitDx=0;exitDy=0;" parent="1" source="kOXnDV7c6oMq51r_EFAc-3" target="kOXnDV7c6oMq51r_EFAc-12" edge="1">
          <mxGeometry width="50" height="50" relative="1" as="geometry">
            <mxPoint x="480" y="440" as="sourcePoint" />
            <mxPoint x="540" y="439.5" as="targetPoint" />
          </mxGeometry>
        </mxCell>
        <mxCell id="kOXnDV7c6oMq51r_EFAc-30" value="" style="endArrow=none;html=1;rounded=0;entryX=0.5;entryY=1;entryDx=0;entryDy=0;exitX=0.5;exitY=0;exitDx=0;exitDy=0;" parent="1" source="kOXnDV7c6oMq51r_EFAc-15" target="kOXnDV7c6oMq51r_EFAc-16" edge="1">
          <mxGeometry width="50" height="50" relative="1" as="geometry">
            <mxPoint x="760" y="400" as="sourcePoint" />
            <mxPoint x="760" y="290" as="targetPoint" />
          </mxGeometry>
        </mxCell>
        <mxCell id="kOXnDV7c6oMq51r_EFAc-32" value="" style="endArrow=none;html=1;rounded=0;exitX=0;exitY=0;exitDx=0;exitDy=0;entryX=0;entryY=0.5;entryDx=0;entryDy=0;" parent="1" target="kOXnDV7c6oMq51r_EFAc-9" edge="1">
          <mxGeometry width="50" height="50" relative="1" as="geometry">
            <mxPoint x="80" y="270" as="sourcePoint" />
            <mxPoint x="30" y="195" as="targetPoint" />
            <Array as="points">
              <mxPoint x="80" y="190" />
            </Array>
          </mxGeometry>
        </mxCell>
        <mxCell id="kOXnDV7c6oMq51r_EFAc-33" value="" style="endArrow=none;html=1;rounded=0;exitX=0.5;exitY=0;exitDx=0;exitDy=0;entryX=0.5;entryY=1;entryDx=0;entryDy=0;" parent="1" source="kOXnDV7c6oMq51r_EFAc-16" target="kOXnDV7c6oMq51r_EFAc-17" edge="1">
          <mxGeometry width="50" height="50" relative="1" as="geometry">
            <mxPoint x="800" y="260" as="sourcePoint" />
            <mxPoint x="790" y="220" as="targetPoint" />
          </mxGeometry>
        </mxCell>
        <mxCell id="kOXnDV7c6oMq51r_EFAc-34" value="" style="endArrow=none;html=1;rounded=0;entryX=0.5;entryY=1;entryDx=0;entryDy=0;exitX=0.5;exitY=0;exitDx=0;exitDy=0;" parent="1" source="kOXnDV7c6oMq51r_EFAc-10" target="kOXnDV7c6oMq51r_EFAc-14" edge="1">
          <mxGeometry width="50" height="50" relative="1" as="geometry">
            <mxPoint x="69.5" y="450" as="sourcePoint" />
            <mxPoint x="70" y="350" as="targetPoint" />
          </mxGeometry>
        </mxCell>
        <mxCell id="kOXnDV7c6oMq51r_EFAc-35" value="" style="endArrow=none;html=1;rounded=0;entryX=0.683;entryY=-0.017;entryDx=0;entryDy=0;exitX=0.5;exitY=1;exitDx=0;exitDy=0;entryPerimeter=0;" parent="1" source="kOXnDV7c6oMq51r_EFAc-36" target="kOXnDV7c6oMq51r_EFAc-3" edge="1">
          <mxGeometry width="50" height="50" relative="1" as="geometry">
            <mxPoint x="610" y="530" as="sourcePoint" />
            <mxPoint x="530" y="470" as="targetPoint" />
          </mxGeometry>
        </mxCell>
        <mxCell id="kOXnDV7c6oMq51r_EFAc-36" value="&lt;font style=&quot;font-size: 14px;&quot;&gt;Cuenta con&lt;/font&gt;" style="rhombus;whiteSpace=wrap;html=1;" parent="1" vertex="1">
          <mxGeometry x="390" y="278" width="90" height="80" as="geometry" />
        </mxCell>
        <mxCell id="kOXnDV7c6oMq51r_EFAc-37" value="" style="endArrow=none;html=1;rounded=0;entryX=0.5;entryY=0;entryDx=0;entryDy=0;exitX=0.6;exitY=1;exitDx=0;exitDy=0;exitPerimeter=0;" parent="1" source="kOXnDV7c6oMq51r_EFAc-38" target="kOXnDV7c6oMq51r_EFAc-36" edge="1">
          <mxGeometry width="50" height="50" relative="1" as="geometry">
            <mxPoint x="700" y="590" as="sourcePoint" />
            <mxPoint x="450" y="460" as="targetPoint" />
          </mxGeometry>
        </mxCell>
        <mxCell id="kOXnDV7c6oMq51r_EFAc-38" value="&lt;font style=&quot;font-size: 18px;&quot;&gt;Ejemplares&lt;/font&gt;" style="rounded=0;whiteSpace=wrap;html=1;" parent="1" vertex="1">
          <mxGeometry x="365" y="160" width="120" height="60" as="geometry" />
        </mxCell>
        <mxCell id="kOXnDV7c6oMq51r_EFAc-39" value="(0:N)" style="text;html=1;align=center;verticalAlign=middle;resizable=0;points=[];autosize=1;strokeColor=none;fillColor=none;" parent="1" vertex="1">
          <mxGeometry x="220" y="150" width="50" height="30" as="geometry" />
        </mxCell>
        <mxCell id="kOXnDV7c6oMq51r_EFAc-40" value="(1:N)" style="text;html=1;align=center;verticalAlign=middle;resizable=0;points=[];autosize=1;strokeColor=none;fillColor=none;" parent="1" vertex="1">
          <mxGeometry x="140" y="590" width="50" height="30" as="geometry" />
        </mxCell>
        <mxCell id="kOXnDV7c6oMq51r_EFAc-41" value="&lt;b&gt;N:M&lt;/b&gt;" style="text;html=1;align=center;verticalAlign=middle;resizable=0;points=[];autosize=1;strokeColor=none;fillColor=none;" parent="1" vertex="1">
          <mxGeometry x="245" y="525" width="50" height="30" as="geometry" />
        </mxCell>
        <mxCell id="kOXnDV7c6oMq51r_EFAc-42" value="(0:N)" style="text;html=1;align=center;verticalAlign=middle;resizable=0;points=[];autosize=1;strokeColor=none;fillColor=none;" parent="1" vertex="1">
          <mxGeometry x="320" y="470" width="50" height="30" as="geometry" />
        </mxCell>
        <mxCell id="kOXnDV7c6oMq51r_EFAc-43" value="(1:N)" style="text;html=1;align=center;verticalAlign=middle;resizable=0;points=[];autosize=1;strokeColor=none;fillColor=none;" parent="1" vertex="1">
          <mxGeometry x="375" y="235" width="50" height="30" as="geometry" />
        </mxCell>
        <mxCell id="kOXnDV7c6oMq51r_EFAc-44" value="&lt;b&gt;1:N&lt;/b&gt;" style="text;html=1;align=center;verticalAlign=middle;resizable=0;points=[];autosize=1;strokeColor=none;fillColor=none;" parent="1" vertex="1">
          <mxGeometry x="350" y="303" width="40" height="30" as="geometry" />
        </mxCell>
        <mxCell id="kOXnDV7c6oMq51r_EFAc-45" value="(0:N)" style="text;html=1;align=center;verticalAlign=middle;resizable=0;points=[];autosize=1;strokeColor=none;fillColor=none;" parent="1" vertex="1">
          <mxGeometry x="325" y="150" width="50" height="30" as="geometry" />
        </mxCell>
        <mxCell id="kOXnDV7c6oMq51r_EFAc-46" value="(1:N)" style="text;html=1;align=center;verticalAlign=middle;resizable=0;points=[];autosize=1;strokeColor=none;fillColor=none;" parent="1" vertex="1">
          <mxGeometry x="470" y="400" width="50" height="30" as="geometry" />
        </mxCell>
        <mxCell id="kOXnDV7c6oMq51r_EFAc-47" value="&lt;b&gt;1:N&lt;/b&gt;" style="text;html=1;align=center;verticalAlign=middle;resizable=0;points=[];autosize=1;strokeColor=none;fillColor=none;" parent="1" vertex="1">
          <mxGeometry x="565" y="370" width="40" height="30" as="geometry" />
        </mxCell>
        <mxCell id="kOXnDV7c6oMq51r_EFAc-48" value="(1:1)" style="text;html=1;align=center;verticalAlign=middle;resizable=0;points=[];autosize=1;strokeColor=none;fillColor=none;" parent="1" vertex="1">
          <mxGeometry x="670" y="400" width="50" height="30" as="geometry" />
        </mxCell>
        <mxCell id="kOXnDV7c6oMq51r_EFAc-49" value="(0:1)" style="text;html=1;align=center;verticalAlign=middle;resizable=0;points=[];autosize=1;strokeColor=none;fillColor=none;" parent="1" vertex="1">
          <mxGeometry x="780" y="370" width="50" height="30" as="geometry" />
        </mxCell>
        <mxCell id="kOXnDV7c6oMq51r_EFAc-50" value="&lt;b&gt;1:N&lt;/b&gt;" style="text;html=1;align=center;verticalAlign=middle;resizable=0;points=[];autosize=1;strokeColor=none;fillColor=none;" parent="1" vertex="1">
          <mxGeometry x="685" y="295" width="40" height="30" as="geometry" />
        </mxCell>
        <mxCell id="kOXnDV7c6oMq51r_EFAc-51" value="(0:N)" style="text;html=1;align=center;verticalAlign=middle;resizable=0;points=[];autosize=1;strokeColor=none;fillColor=none;" parent="1" vertex="1">
          <mxGeometry x="780" y="210" width="50" height="30" as="geometry" />
        </mxCell>
        <mxCell id="kOXnDV7c6oMq51r_EFAc-52" value="(1:1)" style="text;html=1;align=center;verticalAlign=middle;resizable=0;points=[];autosize=1;strokeColor=none;fillColor=none;" parent="1" vertex="1">
          <mxGeometry x="375" y="380" width="50" height="30" as="geometry" />
        </mxCell>
        <mxCell id="kOXnDV7c6oMq51r_EFAc-53" value="(0:N)" style="text;html=1;align=center;verticalAlign=middle;resizable=0;points=[];autosize=1;strokeColor=none;fillColor=none;" parent="1" vertex="1">
          <mxGeometry x="300" y="400" width="50" height="30" as="geometry" />
        </mxCell>
        <mxCell id="kOXnDV7c6oMq51r_EFAc-54" value="&lt;b&gt;N:M&lt;/b&gt;" style="text;html=1;align=center;verticalAlign=middle;resizable=0;points=[];autosize=1;strokeColor=none;fillColor=none;" parent="1" vertex="1">
          <mxGeometry x="215" y="370" width="50" height="30" as="geometry" />
        </mxCell>
        <mxCell id="kOXnDV7c6oMq51r_EFAc-55" value="(1:N)" style="text;html=1;align=center;verticalAlign=middle;resizable=0;points=[];autosize=1;strokeColor=none;fillColor=none;" parent="1" vertex="1">
          <mxGeometry x="130" y="400" width="50" height="30" as="geometry" />
        </mxCell>
        <mxCell id="kOXnDV7c6oMq51r_EFAc-57" value="(0:N)" style="text;html=1;align=center;verticalAlign=middle;resizable=0;points=[];autosize=1;strokeColor=none;fillColor=none;" parent="1" vertex="1">
          <mxGeometry x="60" y="150" width="50" height="30" as="geometry" />
        </mxCell>
        <mxCell id="kOXnDV7c6oMq51r_EFAc-58" value="&lt;b&gt;N:M&lt;/b&gt;" style="text;html=1;align=center;verticalAlign=middle;resizable=0;points=[];autosize=1;strokeColor=none;fillColor=none;" parent="1" vertex="1">
          <mxGeometry y="265" width="50" height="30" as="geometry" />
        </mxCell>
        <mxCell id="kOXnDV7c6oMq51r_EFAc-59" value="(1:N)" style="text;html=1;align=center;verticalAlign=middle;resizable=0;points=[];autosize=1;strokeColor=none;fillColor=none;" parent="1" vertex="1">
          <mxGeometry x="10" y="380" width="50" height="30" as="geometry" />
        </mxCell>
        <mxCell id="kOXnDV7c6oMq51r_EFAc-60" value="&lt;b&gt;N:M&lt;/b&gt;" style="text;html=1;align=center;verticalAlign=middle;resizable=0;points=[];autosize=1;strokeColor=none;fillColor=none;" parent="1" vertex="1">
          <mxGeometry x="275" y="230" width="50" height="30" as="geometry" />
        </mxCell>
        <mxCell id="kOXnDV7c6oMq51r_EFAc-64" value="Contamos con que cada empleado&lt;br&gt;máximo puede estar en 1 &lt;br&gt;distribuidora trabajando" style="text;html=1;align=center;verticalAlign=middle;resizable=0;points=[];autosize=1;strokeColor=#6c8ebf;fillColor=#dae8fc;fillStyle=auto;" parent="1" vertex="1">
          <mxGeometry x="490" y="150" width="210" height="60" as="geometry" />
        </mxCell>
        <mxCell id="xmzchEkCsxjt8yGE-fRX-1" value="" style="endArrow=none;html=1;rounded=0;exitX=0;exitY=0.5;exitDx=0;exitDy=0;entryX=1;entryY=0.5;entryDx=0;entryDy=0;" parent="1" source="kOXnDV7c6oMq51r_EFAc-13" target="kOXnDV7c6oMq51r_EFAc-9" edge="1">
          <mxGeometry width="50" height="50" relative="1" as="geometry">
            <mxPoint x="370" y="215" as="sourcePoint" />
            <mxPoint x="230" y="190" as="targetPoint" />
          </mxGeometry>
        </mxCell>
        <mxCell id="YaJXxYARcYWQK3HwI-BU-1" value="&lt;font style=&quot;font-size: 14px;&quot;&gt;Nacionalidades&lt;/font&gt;" style="rounded=0;whiteSpace=wrap;html=1;" vertex="1" parent="1">
          <mxGeometry x="-170" y="290" width="120" height="60" as="geometry" />
        </mxCell>
        <mxCell id="YaJXxYARcYWQK3HwI-BU-2" value="&lt;font style=&quot;font-size: 14px;&quot;&gt;Tienen&lt;/font&gt;" style="rhombus;whiteSpace=wrap;html=1;" vertex="1" parent="1">
          <mxGeometry x="-150" y="400" width="80" height="80" as="geometry" />
        </mxCell>
        <mxCell id="YaJXxYARcYWQK3HwI-BU-3" value="" style="endArrow=none;html=1;rounded=0;entryX=0.5;entryY=1;entryDx=0;entryDy=0;exitX=0.5;exitY=0;exitDx=0;exitDy=0;" edge="1" parent="1" source="YaJXxYARcYWQK3HwI-BU-2" target="YaJXxYARcYWQK3HwI-BU-1">
          <mxGeometry width="50" height="50" relative="1" as="geometry">
            <mxPoint x="400" y="430" as="sourcePoint" />
            <mxPoint x="450" y="380" as="targetPoint" />
          </mxGeometry>
        </mxCell>
        <mxCell id="YaJXxYARcYWQK3HwI-BU-4" value="" style="endArrow=none;html=1;rounded=0;entryX=0;entryY=0.5;entryDx=0;entryDy=0;exitX=1;exitY=0.5;exitDx=0;exitDy=0;" edge="1" parent="1" source="YaJXxYARcYWQK3HwI-BU-2" target="kOXnDV7c6oMq51r_EFAc-10">
          <mxGeometry width="50" height="50" relative="1" as="geometry">
            <mxPoint x="-100" y="410" as="sourcePoint" />
            <mxPoint x="-100" y="360" as="targetPoint" />
          </mxGeometry>
        </mxCell>
        <mxCell id="YaJXxYARcYWQK3HwI-BU-5" value="(1:N)" style="text;html=1;align=center;verticalAlign=middle;resizable=0;points=[];autosize=1;strokeColor=none;fillColor=none;" vertex="1" parent="1">
          <mxGeometry x="-170" y="358" width="50" height="30" as="geometry" />
        </mxCell>
        <mxCell id="YaJXxYARcYWQK3HwI-BU-6" value="(0:N)" style="text;html=1;align=center;verticalAlign=middle;resizable=0;points=[];autosize=1;strokeColor=none;fillColor=none;" vertex="1" parent="1">
          <mxGeometry x="-40" y="460" width="50" height="30" as="geometry" />
        </mxCell>
        <mxCell id="YaJXxYARcYWQK3HwI-BU-7" value="&lt;b&gt;N:M&lt;/b&gt;" style="text;html=1;align=center;verticalAlign=middle;resizable=0;points=[];autosize=1;strokeColor=none;fillColor=none;" vertex="1" parent="1">
          <mxGeometry x="-200" y="425" width="50" height="30" as="geometry" />
        </mxCell>
      </root>
    </mxGraphModel>
  </diagram>
</mxfile>
